<!DOCTYPE svg PUBLIC "-//W3C//DTD SVG 1.1//EN" "http://www.w3.org/Graphics/SVG/1.1/DTD/svg11.dtd">
<!-- Uploaded to: SVG Repo, www.svgrepo.com, Transformed by: SVG Repo Mixer Tools -->
<svg fill="#ee1b1b" height="800px" width="800px" version="1.1" id="Layer_1" xmlns="http://www.w3.org/2000/svg" xmlns:xlink="http://www.w3.org/1999/xlink" viewBox="0 0 512 512" xml:space="preserve" stroke="#ee1b1b" transform="matrix(1, 0, 0, 1, 0, 0)rotate(0)">
<g id="SVGRepo_bgCarrier" stroke-width="0"/>
<g id="SVGRepo_tracerCarrier" stroke-linecap="round" stroke-linejoin="round"/>
<g id="SVGRepo_iconCarrier"> <g> <g> <path d="M381.388,151.594v-38.745c0-9.075-3.532-17.604-9.944-24.014c-6.41-6.414-14.94-9.945-24.015-9.945 c-18.726,0-33.959,15.234-33.959,33.959v19.331h-36.571v-19.331c0-18.726-15.234-33.959-33.959-33.959 c-18.725,0-33.959,15.234-33.959,33.959v19.331h-36.571v-19.331c0-18.726-15.235-33.959-33.959-33.959 c-18.725,0-33.959,15.234-33.959,33.959v19.331H80.98v15.673h23.51v15.673H80.98V179.2h23.51v153.6H67.918V112.849 c0-18.726-15.235-33.959-33.959-33.959C15.235,78.89,0,94.123,0,112.849v286.302c0,18.726,15.235,33.959,33.959,33.959 c18.725,0,33.959-15.234,33.959-33.959V379.82h36.571v19.331c0,18.726,15.235,33.959,33.959,33.959 c18.725,0,33.959-15.234,33.959-33.959V379.82h23.51v-15.674h-23.51v-15.673h23.51V332.8h-23.51V179.2h36.571v219.951 c0,18.726,15.235,33.959,33.959,33.959c18.726,0,33.959-15.234,33.959-33.959V379.82h36.571v19.331 c0,18.726,15.234,33.959,33.959,33.959c18.726,0,33.959-15.234,33.959-33.959v-63.425h-15.673v63.425 c0,10.082-8.203,18.286-18.286,18.286s-18.286-8.203-18.286-18.286V286.887h-15.674V332.8h-36.571V179.2h36.571v21.232h15.674 v-87.583c0-10.082,8.203-18.286,18.286-18.286c4.888,0,9.48,1.901,12.933,5.354c3.452,3.451,5.353,8.044,5.353,12.932v38.745 H381.388z M52.245,399.151c0,10.082-8.203,18.286-18.286,18.286c-10.082,0-18.286-8.203-18.286-18.286V112.849 c0-10.082,8.203-18.286,18.286-18.286c10.082,0,18.286,8.203,18.286,18.286V399.151z M104.49,364.147H67.918v-15.673h36.571 V364.147z M156.735,399.151c0,10.082-8.203,18.286-18.286,18.286s-18.286-8.203-18.286-18.286V112.849 c0-10.082,8.203-18.286,18.286-18.286s18.286,8.203,18.286,18.286V399.151z M208.98,163.527h-36.571v-15.673h36.571V163.527z M261.224,399.151c0,10.082-8.204,18.286-18.286,18.286s-18.286-8.203-18.286-18.286V112.849c0-10.082,8.203-18.286,18.286-18.286 s18.286,8.203,18.286,18.286V399.151z M313.469,348.473v15.673h-36.571v-15.673H313.469z M313.469,163.527h-36.571v-15.673h36.571 V163.527z"/> </g> </g> <g> <g> <path d="M471.271,182.384c-16.243-16.075-37.774-24.928-60.626-24.928c-47.532,0-86.204,38.672-86.204,86.204 c0,47.532,38.672,86.204,86.204,86.204c4.188,0,8.404-0.305,12.531-0.907l-2.263-15.51c-3.38,0.494-6.836,0.744-10.268,0.744 c-38.891,0-70.531-31.64-70.531-70.531c0-38.891,31.64-70.531,70.531-70.531c38.454,0,70.09,31.277,70.52,69.72l15.673-0.176 C496.583,219.856,487.502,198.445,471.271,182.384z"/> </g> </g> <g> <g> <path d="M410.645,188.801c-30.248,0-54.857,24.609-54.857,54.857h15.673c0-21.606,17.577-39.184,39.184-39.184 s39.184,17.577,39.184,39.184h15.673C465.502,213.41,440.893,188.801,410.645,188.801z"/> </g> </g> <g> <g> <path d="M478.697,250.819l-5.881-6.676l-5.881,6.676c-5.561,6.313-33.303,38.785-33.303,58.079 c0,21.606,17.577,39.184,39.184,39.184c21.606,0,39.184-17.577,39.184-39.184C512,289.604,484.258,257.133,478.697,250.819z M472.816,332.408c-12.963,0-23.51-10.547-23.51-23.51c0-8.368,12.326-26.839,23.512-40.723 c11.186,13.874,23.508,32.341,23.508,40.723C496.327,321.861,485.779,332.408,472.816,332.408z"/> </g> </g> <g> <g> <path d="M410.645,215.445c0,0-11.603,38.413-11.603,44.821c0,6.408,5.195,11.603,11.603,11.603s11.603-5.195,11.603-11.603 C422.247,253.859,410.645,215.445,410.645,215.445z"/> </g> </g> </g>
</svg>