<?xml version="1.0" encoding="utf-8"?><!-- Uploaded to: SVG Repo, www.svgrepo.com, Generator: SVG Repo Mixer Tools -->
<svg fill="#000000" width="800px" height="800px" viewBox="0 0 24 24" xmlns="http://www.w3.org/2000/svg" id="no-water" class="icon glyph"><path d="M19.25,10.31A9.93,9.93,0,0,1,20,14,8,8,0,0,1,8.32,21.11a1,1,0,1,1,.92-1.78A6,6,0,0,0,18,14a8,8,0,0,0-.61-2.95,1,1,0,0,1,1.86-.74Zm1.46-7a1,1,0,0,0-1.42,0L16.59,6a23.25,23.25,0,0,0-4-3.8,1,1,0,0,0-1.16,0C11.12,2.4,4,7.56,4,14a8,8,0,0,0,.9,3.69l-1.61,1.6a1,1,0,0,0,0,1.42,1,1,0,0,0,1.42,0l2.12-2.13s0,0,0,0L17.2,8.22l0,0,3.49-3.48A1,1,0,0,0,20.71,3.29Z"></path></svg>